# Blender 4.1.0
# www.blender.org
mtllib cylinder.mtl
o Cylinder
v 0.000000 -1.000000 0.000000
v 0.000000 1.000000 0.000000
v 0.000000 -1.000000 -1.000000
v 0.000000 1.000000 -1.000000
v 0.382683 -1.000000 -0.923880
v 0.382683 1.000000 -0.923880
v 0.707107 -1.000000 -0.707107
v 0.707107 1.000000 -0.707107
v 0.923880 -1.000000 -0.382683
v 0.923880 1.000000 -0.382683
v 1.000000 -1.000000 0.000000
v 1.000000 1.000000 0.000000
v 0.923880 -1.000000 0.382683
v 0.923880 1.000000 0.382683
v 0.707107 -1.000000 0.707107
v 0.707107 1.000000 0.707107
v 0.382683 -1.000000 0.923880
v 0.382683 1.000000 0.923880
v 0.000000 -1.000000 1.000000
v 0.000000 1.000000 1.000000
v -0.382683 -1.000000 0.923880
v -0.382683 1.000000 0.923880
v -0.707107 -1.000000 0.707107
v -0.707107 1.000000 0.707107
v -0.923880 -1.000000 0.382683
v -0.923880 1.000000 0.382683
v -1.000000 -1.000000 0.000000
v -1.000000 1.000000 0.000000
v -0.923880 -1.000000 -0.382683
v -0.923880 1.000000 -0.382683
v -0.707107 -1.000000 -0.707107
v -0.707107 1.000000 -0.707107
v -0.382683 -1.000000 -0.923880
v -0.382683 1.000000 -0.923880
vn -0.0000 -1.0000 -0.0000
vn -0.0000 1.0000 -0.0000
vn 0.1951 -0.0000 -0.9808
vn 0.5556 -0.0000 -0.8315
vn 0.8315 -0.0000 -0.5556
vn 0.9808 -0.0000 -0.1951
vn 0.9808 -0.0000 0.1951
vn 0.8315 -0.0000 0.5556
vn 0.5556 -0.0000 0.8315
vn 0.1951 -0.0000 0.9808
vn -0.1951 -0.0000 0.9808
vn -0.5556 -0.0000 0.8315
vn -0.8315 -0.0000 0.5556
vn -0.9808 -0.0000 0.1951
vn -0.9808 -0.0000 -0.1951
vn -0.8315 -0.0000 -0.5556
vn -0.5556 -0.0000 -0.8315
vn -0.1951 -0.0000 -0.9808
vt 0.750000 0.250000
vt 0.750000 0.490000
vt 0.841844 0.471731
vt 0.250000 0.250000
vt 0.341844 0.471731
vt 0.250000 0.490000
vt 1.000000 1.000000
vt 0.937500 0.500000
vt 1.000000 0.500000
vt 0.919706 0.419706
vt 0.419706 0.419706
vt 0.937500 1.000000
vt 0.875000 0.500000
vt 0.971731 0.341844
vt 0.471731 0.341844
vt 0.875000 1.000000
vt 0.812500 0.500000
vt 0.990000 0.250000
vt 0.490000 0.250000
vt 0.812500 1.000000
vt 0.750000 0.500000
vt 0.971731 0.158156
vt 0.471731 0.158156
vt 0.750000 1.000000
vt 0.687500 0.500000
vt 0.919706 0.080294
vt 0.419706 0.080294
vt 0.687500 1.000000
vt 0.625000 0.500000
vt 0.841844 0.028269
vt 0.341844 0.028269
vt 0.625000 1.000000
vt 0.562500 0.500000
vt 0.750000 0.010000
vt 0.250000 0.010000
vt 0.562500 1.000000
vt 0.500000 0.500000
vt 0.658156 0.028269
vt 0.158156 0.028269
vt 0.500000 1.000000
vt 0.437500 0.500000
vt 0.580294 0.080294
vt 0.080294 0.080294
vt 0.437500 1.000000
vt 0.375000 0.500000
vt 0.528269 0.158156
vt 0.028269 0.158156
vt 0.375000 1.000000
vt 0.312500 0.500000
vt 0.510000 0.250000
vt 0.010000 0.250000
vt 0.312500 1.000000
vt 0.250000 0.500000
vt 0.528269 0.341844
vt 0.028269 0.341844
vt 0.250000 1.000000
vt 0.187500 0.500000
vt 0.580294 0.419706
vt 0.080294 0.419706
vt 0.187500 1.000000
vt 0.125000 0.500000
vt 0.658156 0.471731
vt 0.158156 0.471731
vt 0.125000 1.000000
vt 0.062500 0.500000
vt 0.062500 1.000000
vt 0.000000 0.500000
vt 0.000000 1.000000
s 0
f 1/1/1 3/2/1 5/3/1
f 2/4/2 6/5/2 4/6/2
f 4/7/3 5/8/3 3/9/3
f 1/1/1 5/3/1 7/10/1
f 2/4/2 8/11/2 6/5/2
f 6/12/4 7/13/4 5/8/4
f 1/1/1 7/10/1 9/14/1
f 2/4/2 10/15/2 8/11/2
f 8/16/5 9/17/5 7/13/5
f 1/1/1 9/14/1 11/18/1
f 2/4/2 12/19/2 10/15/2
f 10/20/6 11/21/6 9/17/6
f 1/1/1 11/18/1 13/22/1
f 2/4/2 14/23/2 12/19/2
f 12/24/7 13/25/7 11/21/7
f 1/1/1 13/22/1 15/26/1
f 2/4/2 16/27/2 14/23/2
f 14/28/8 15/29/8 13/25/8
f 1/1/1 15/26/1 17/30/1
f 2/4/2 18/31/2 16/27/2
f 16/32/9 17/33/9 15/29/9
f 1/1/1 17/30/1 19/34/1
f 2/4/2 20/35/2 18/31/2
f 18/36/10 19/37/10 17/33/10
f 1/1/1 19/34/1 21/38/1
f 2/4/2 22/39/2 20/35/2
f 20/40/11 21/41/11 19/37/11
f 1/1/1 21/38/1 23/42/1
f 2/4/2 24/43/2 22/39/2
f 22/44/12 23/45/12 21/41/12
f 1/1/1 23/42/1 25/46/1
f 2/4/2 26/47/2 24/43/2
f 24/48/13 25/49/13 23/45/13
f 1/1/1 25/46/1 27/50/1
f 2/4/2 28/51/2 26/47/2
f 26/52/14 27/53/14 25/49/14
f 1/1/1 27/50/1 29/54/1
f 2/4/2 30/55/2 28/51/2
f 28/56/15 29/57/15 27/53/15
f 1/1/1 29/54/1 31/58/1
f 2/4/2 32/59/2 30/55/2
f 30/60/16 31/61/16 29/57/16
f 1/1/1 31/58/1 33/62/1
f 2/4/2 34/63/2 32/59/2
f 32/64/17 33/65/17 31/61/17
f 1/1/1 33/62/1 3/2/1
f 2/4/2 4/6/2 34/63/2
f 34/66/18 3/67/18 33/65/18
f 4/7/3 6/12/3 5/8/3
f 6/12/4 8/16/4 7/13/4
f 8/16/5 10/20/5 9/17/5
f 10/20/6 12/24/6 11/21/6
f 12/24/7 14/28/7 13/25/7
f 14/28/8 16/32/8 15/29/8
f 16/32/9 18/36/9 17/33/9
f 18/36/10 20/40/10 19/37/10
f 20/40/11 22/44/11 21/41/11
f 22/44/12 24/48/12 23/45/12
f 24/48/13 26/52/13 25/49/13
f 26/52/14 28/56/14 27/53/14
f 28/56/15 30/60/15 29/57/15
f 30/60/16 32/64/16 31/61/16
f 32/64/17 34/66/17 33/65/17
f 34/66/18 4/68/18 3/67/18
